<?xml version="1.0" encoding="utf-8"?>
<!-- Generator: Adobe Illustrator 16.0.4, SVG Export Plug-In . SVG Version: 6.00 Build 0)  -->
<!DOCTYPE svg PUBLIC "-//W3C//DTD SVG 1.1//EN" "http://www.w3.org/Graphics/SVG/1.1/DTD/svg11.dtd">
<svg version="1.1" id="Layer_1" xmlns="http://www.w3.org/2000/svg" xmlns:xlink="http://www.w3.org/1999/xlink" x="0px" y="0px"
	 width="187.752px" height="117.542px" viewBox="0 0 187.752 117.542" enable-background="new 0 0 187.752 117.542"
	 xml:space="preserve">
<rect x="104.31" y="25.469" fill="#FFFFFF" width="4.678" height="22.27"/>
<rect x="79.059" y="25.469" fill="#FFFFFF" width="4.528" height="22.27"/>
<rect x="85.146" y="25.469" fill="#FFFFFF" width="4.828" height="22.27"/>
<rect x="91.535" y="25.469" fill="#FFFFFF" width="4.828" height="22.27"/>
<rect x="97.922" y="25.469" fill="#FFFFFF" width="4.828" height="22.27"/>
<polygon fill="#FFFFFF" points="106.978,23.896 80.967,23.896 94.317,15.682 "/>
<polygon fill="#FFFFFF" points="77.971,23.896 66.828,23.896 66.828,15.597 91.46,15.597 "/>
<polygon fill="#FFFFFF" points="97.071,15.597 121.069,15.597 121.069,23.896 109.859,23.896 "/>
<path fill="#FFFFFF" d="M117.635,14.023H70.263C74.901,5.655,83.77,0,93.948,0C104.125,0,112.994,5.655,117.635,14.023"/>
<path fill="#FFFFFF" d="M70.478,41.391l-0.408,1.247l1.061-0.77l1.061,0.77l-0.405-1.247l1.061-0.771h-1.311l-0.406-1.247
	l-0.405,1.247h-1.311L70.478,41.391z M66.822,34.31l1.063,0.771l-0.407,1.247l1.061-0.77l1.061,0.77l-0.406-1.247l1.062-0.771
	h-1.312l-0.405-1.247l-0.405,1.247H66.822z M77.501,47.739h-1.434L75.664,46.5l1.061-0.771h-1.311l-0.405-1.247l-0.406,1.247h-1.311
	l1.063,0.771l-0.405,1.239h-7.122L66.822,34.31l0.006-4.841l0.995-0.723l1.061,0.771l-0.405-1.248l1.061-0.771h-1.312l-0.405-1.247
	l-0.185,0.569l-0.255,0.678h-0.555v-2.029h10.673V47.739z M76.058,47.739h-2.099l1.05-0.763L76.058,47.739z M66.828,29.315v-1.293
	l0.312,0.226l-0.226,0.695L66.828,29.315z"/>
<rect x="66.828" y="49.313" fill="#FFFFFF" width="10.673" height="5.912"/>
<rect x="110.545" y="49.313" fill="#FFFFFF" width="10.524" height="5.912"/>
<path fill="#FFFFFF" d="M101.264,53.487l1.063-0.771h-1.312l-0.405-1.247l-0.404,1.247h-1.312l1.062,0.771l-0.405,1.247l1.061-0.771
	l1.062,0.771L101.264,53.487z M93.339,54.314l-0.297,0.91H79.06v-5.912h1.725l-0.301,0.925h-1.312l1.063,0.771l-0.407,1.247
	l1.061-0.771l1.061,0.771l-0.405-1.247l1.061-0.771h-1.312l-0.3-0.925h25.983l-0.301,0.925h-1.312l1.061,0.771l-0.405,1.247
	l1.062-0.771l1.061,0.771l-0.407-1.247l1.063-0.771h-1.312l-0.3-0.925h1.801v5.912H94.943l-0.296-0.91l1.062-0.771h-1.312
	l-0.405-1.247l-0.405,1.247h-1.312L93.339,54.314z M86.516,53.487l-0.408,1.247l1.061-0.771l1.061,0.771l-0.405-1.247l1.061-0.771
	h-1.311l-0.406-1.247l-0.405,1.247h-1.311L86.516,53.487z M94.596,55.225h-1.2l0.597-0.434L94.596,55.225z"/>
<path fill="#FFFFFF" d="M117.492,41.391l1.063-0.77h-1.312l-0.404-1.248l-0.406,1.248h-1.312l1.062,0.77l-0.405,1.248l1.062-0.771
	l1.06,0.771L117.492,41.391z M114.019,47.739l-0.404-1.239l1.063-0.771h-1.312l-0.404-1.247l-0.405,1.247h-1.312l1.062,0.771
	l-0.403,1.239l1.059-0.762l1.05,0.762H114.019z M121.069,47.739h-7.051h-2.107h-1.365v-22.27h10.523v2.03h-0.518l-0.405-1.248
	l-0.406,1.248h-1.311l1.061,0.77l-0.404,1.248l1.061-0.771l0.923,0.671v4.894h-1.233l-0.405-1.247l-0.405,1.247h-1.312l1.061,0.771
	l-0.405,1.247l1.062-0.771l1.061,0.771l-0.406-1.247l0.984-0.715V47.739z M121.069,28.074v1.021l-0.27-0.826L121.069,28.074z"/>
<path fill="#FFFFFF" d="M15.205,87.812c3.654,0,6.217-0.967,7.897-2.521c2.352-2.016,3.276-4.663,3.528-8.106
	c0.126-1.639,0.21-8.989,0.21-9.577s0-6.552,0.084-6.973c0.126-0.504,0.252-1.681,1.806-1.681h1.722c0.21,0,0.252-0.168,0.252-0.419
	v-0.924c0-0.127-0.042-0.295-0.42-0.295s-1.722,0.126-4.62,0.126c-2.814,0-4.747-0.126-5.167-0.126
	c-0.252,0-0.293,0.084-0.293,0.295v1.008c0,0.209,0.041,0.335,0.293,0.335h1.849c1.092,0,1.764,0.757,1.89,1.849
	c0.126,1.051,0.21,3.486,0.21,6.679v8.988c0,3.108-0.546,5.63-2.184,7.394c-1.47,1.512-3.907,2.31-6.301,2.31
	c-2.436,0-5.124-0.756-6.679-3.023c-0.966-1.428-1.302-3.403-1.344-5.335c-0.042-1.345-0.21-6.679-0.21-8.905v-2.772
	c0-2.142,0.042-5.081,0.084-5.46c0.084-0.924,0.798-1.723,2.017-1.723h2.1c0.294,0,0.336-0.083,0.336-0.293v-1.093
	c0-0.168-0.042-0.252-0.378-0.252c-0.462,0-2.478,0.126-5.755,0.126c-3.276,0-5.334-0.126-5.754-0.126C0.042,57.316,0,57.4,0,57.653
	v0.923c0,0.295,0.042,0.378,0.294,0.378h1.974c1.302,0,1.596,0.672,1.596,2.144v9.995c0,5.504,0.168,8.317,0.672,10.207
	c0.672,2.647,2.142,4.495,4.999,5.629C10.921,87.518,13.021,87.812,15.205,87.812"/>
<path fill="#FFFFFF" d="M48.796,73.329c0-1.871-0.091-4.746,0.137-6.846c0.091-0.639,0.319-0.959,1.46-0.959h0.457
	c0.182,0,0.273-0.137,0.273-0.318v-0.958c0-0.274-0.091-0.366-0.319-0.366c-0.319,0-1.917,0.137-2.875,0.137
	c-1.46,0-3.423-0.137-3.742-0.137c-0.228,0-0.32,0.092-0.32,0.228v1.097c0,0.228,0.092,0.318,0.32,0.318h0.776
	c0.775,0,1.46,0.274,1.688,0.822c0.228,0.547,0.365,3.194,0.365,4.289c0.091,1.461,0.137,2.875,0.137,5.477v3.013h-0.182
	c-0.548-0.593-4.792-5.934-5.614-6.892c-0.958-1.141-6.206-7.758-6.343-7.94c-0.183-0.274-0.456-0.365-1.095-0.365
	c-0.548,0-1.506,0.091-2.236,0.091c-0.503,0-1.233-0.045-1.826-0.091c-0.593,0-1.095-0.046-1.187-0.046
	c-0.182,0-0.273,0.137-0.273,0.274v1.095c0,0.183,0.091,0.273,0.273,0.273h0.411c1.278,0,2.419,0.776,2.419,2.419v4.792
	c0,5.157-0.091,8.397-0.137,8.944c-0.137,1.05-0.867,1.369-1.323,1.369h-1.05c-0.137,0-0.183,0.046-0.183,0.137v1.188
	c0,0.228,0.046,0.318,0.137,0.318c0.365,0,2.419-0.137,3.058-0.137c1.323,0,3.149,0.137,3.468,0.137
	c0.228,0,0.228-0.091,0.228-0.273v-1.095c0-0.183,0-0.274-0.228-0.274h-0.958c-0.456,0-0.958-0.502-1.095-1.551
	c-0.092-0.411-0.274-4.975-0.274-7.713v-6.252h0.091c0.73,0.821,4.427,5.75,5.522,7.027c0.502,0.593,2.464,2.921,4.564,5.432
	c1.871,2.235,3.422,4.106,3.742,4.426c0.182,0.137,0.639,0.457,1.049,0.457c0.548,0,0.685-0.457,0.685-0.867V73.329z"/>
<path fill="#FFFFFF" d="M58.736,72.872c0-0.318,0.045-5.75,0.045-6.206c0.046-0.959,0.457-1.141,1.689-1.141h0.776
	c0.228,0,0.274-0.137,0.274-0.32V64.11c0-0.137-0.091-0.228-0.274-0.228c-0.365,0-2.693,0.137-4.016,0.137
	c-2.145,0.045-4.974-0.137-5.248-0.137c-0.183,0-0.274,0.091-0.274,0.273v1.049c0,0.184,0.046,0.32,0.274,0.32h0.821
	c1.917,0,2.328,0.456,2.328,0.958c0,0.639,0.091,5.202,0.091,5.933v2.009c0,1.551-0.046,7.347-0.091,7.758
	c-0.092,0.82-0.822,0.867-1.963,0.867h-1.004c-0.182,0-0.274,0.137-0.274,0.273v1.004c0,0.229,0.092,0.365,0.274,0.365
	c0.274,0,2.921-0.137,4.473-0.137c2.053,0,4.426,0.137,4.792,0.137c0.228,0,0.273-0.137,0.273-0.32v-1.095
	c0-0.137-0.045-0.228-0.273-0.228h-0.685c-1.324,0-1.871-0.64-1.963-1.689c-0.045-0.684-0.045-5.932-0.045-6.206V72.872z"/>
<path fill="#FFFFFF" d="M104.332,74.15c-0.045,2.784,0,5.476-0.045,7.712c0,1.004-0.548,1.188-1.643,1.188h-0.547
	c-0.184,0-0.274,0.091-0.274,0.228v1.05c0,0.229,0.091,0.365,0.274,0.365c0.318,0,2.646-0.137,3.787-0.137
	c1.506,0,3.971,0.137,4.289,0.137c0.274,0,0.365-0.091,0.365-0.32v-1.095c0-0.137-0.091-0.228-0.273-0.228h-1.187
	c-0.913,0-1.187-0.502-1.277-1.142v-4.929v-1.095c0.318-0.092,0.729-0.092,1.186-0.092c1.917,0,2.602,1.005,4.245,3.833
	c0.41,0.686,2.418,4.382,3.285,5.021c0.775-0.045,1.872-0.091,2.921-0.091c0.457,0,1.004,0.046,1.415,0.046
	c0.456,0.045,0.82,0.091,0.913,0.091c0.182,0,0.272-0.137,0.272-0.32V83.46c0-0.273-0.045-0.41-0.228-0.41
	c-0.821,0-1.415-0.047-2.055-0.502c-0.866-0.64-1.916-2.009-2.555-2.922c-1.871-2.646-2.784-4.062-3.833-4.289v-0.092
	c3.605-1.277,5.385-3.103,5.385-6.252c0-1.05-0.594-2.373-1.598-3.331c-1.141-1.004-3.194-1.779-5.932-1.779
	c-0.595,0-4.564,0.137-5.111,0.137c-0.822,0-3.652-0.137-3.88-0.137c-0.182,0-0.274,0.091-0.274,0.228v1.095
	c0,0.184,0.046,0.32,0.184,0.32h0.456c1.277,0,1.688,0.502,1.733,1.414v4.381V74.15z M107.802,66.347
	c0-0.821,0.684-1.004,1.368-1.004c1.825,0,3.104,0.41,4.335,1.187c0.822,0.547,1.507,1.779,1.507,3.148
	c0,1.187-0.775,4.747-5.842,4.747c-0.593,0-1.05-0.047-1.368-0.093V66.347z"/>
<path fill="#FFFFFF" d="M129.23,85.103c4.152,0,6.344-2.921,6.344-6.343c0-2.282-0.548-3.423-1.461-4.382
	c-1.141-1.186-2.829-1.688-4.928-2.464c-0.868-0.319-2.511-1.004-3.195-1.871c-0.502-0.593-0.73-1.552-0.73-2.236
	c0-0.821,0.73-2.783,3.24-2.783c1.323,0,2.327,0.455,3.012,1.231c0.958,1.095,1.323,2.693,1.598,3.24
	c0.046,0.137,0.137,0.229,0.273,0.183l0.821-0.183c0.137-0.045,0.183-0.137,0.183-0.273c-0.046-0.639-0.455-3.605-0.455-5.111
	c0-0.229-0.047-0.41-0.411-0.41c-0.365,0-0.502,0-0.594,0.137l-0.183,0.319c-0.091,0.228-0.319,0.183-0.776-0.091
	c-0.547-0.274-1.506-0.595-3.239-0.595c-1.644,0-3.104,0.411-4.29,1.369c-1.004,0.868-1.962,2.282-1.962,3.834
	c0,2.236,0.548,3.696,1.597,4.701c1.369,1.232,3.56,2.053,4.473,2.373c2.418,0.912,4.198,2.053,4.198,4.654
	c0,1.963-2.19,3.104-3.651,3.104c-1.688,0-3.193-0.913-3.879-2.282c-0.82-1.506-0.82-2.464-0.82-3.103
	c0-0.183-0.184-0.274-0.365-0.32l-0.822-0.091c-0.182,0-0.273,0.137-0.319,0.319c-0.046,0.73-0.364,4.381-0.502,5.659
	c-0.046,0.228,0.092,0.41,0.365,0.502c0.365,0.092,0.593,0,0.685-0.229l0.137-0.365c0.091-0.364,0.365-0.319,0.685-0.091
	C125.306,84.327,126.903,85.103,129.23,85.103"/>
<path fill="#FFFFFF" d="M143.304,72.872c0-0.318,0.046-5.75,0.046-6.206c0.046-0.959,0.456-1.141,1.688-1.141h0.776
	c0.228,0,0.273-0.137,0.273-0.32V64.11c0-0.137-0.091-0.228-0.273-0.228c-0.365,0-2.692,0.137-4.017,0.137
	c-2.145,0.045-4.974-0.137-5.248-0.137c-0.182,0-0.273,0.091-0.273,0.273v1.049c0,0.184,0.046,0.32,0.273,0.32h0.822
	c1.916,0,2.327,0.456,2.327,0.958c0,0.639,0.091,5.202,0.091,5.933v2.009c0,1.551-0.045,7.347-0.091,7.758
	c-0.091,0.82-0.822,0.867-1.962,0.867h-1.004c-0.184,0-0.274,0.137-0.274,0.273v1.004c0,0.229,0.091,0.365,0.274,0.365
	c0.273,0,2.92-0.137,4.472-0.137c2.054,0,4.427,0.137,4.792,0.137c0.228,0,0.274-0.137,0.274-0.32v-1.095
	c0-0.137-0.047-0.228-0.274-0.228h-0.685c-1.323,0-1.871-0.64-1.963-1.689c-0.046-0.684-0.046-5.932-0.046-6.206V72.872z"/>
<path fill="#FFFFFF" d="M23.049,99.183c4.188,0,6.701-5.747,6.701-8.925c0-1.964-1.156-3.379-3.091-3.379
	c-3.841,0-6.585,4.939-6.585,8.578C20.074,97.651,21.461,99.183,23.049,99.183 M22.616,97.796c-0.693,0-1.329-0.549-1.329-1.473
	c0-1.357,0.694-3.119,1.676-4.679c1.444-2.339,2.974-3.437,4.187-3.437c0.953,0,1.473,0.723,1.444,1.617
	C28.594,91.731,25.62,97.796,22.616,97.796"/>
<path fill="#FFFFFF" d="M69.728,99.915c0-0.319,0.046-5.75,0.046-6.207c0.045-0.958,0.456-1.14,1.688-1.14h0.776
	c0.228,0,0.274-0.138,0.274-0.32v-1.095c0-0.138-0.091-0.229-0.274-0.229c-0.365,0-2.693,0.138-4.016,0.138
	c-2.145,0.045-4.974-0.138-5.248-0.138c-0.183,0-0.274,0.091-0.274,0.273v1.05c0,0.183,0.046,0.32,0.274,0.32h0.821
	c1.917,0,2.328,0.456,2.328,0.958c0,0.639,0.091,5.202,0.091,5.933v2.008c0,1.552-0.045,7.348-0.091,7.758
	c-0.092,0.821-0.822,0.867-1.963,0.867h-1.004c-0.182,0-0.273,0.138-0.273,0.274v1.004c0,0.228,0.091,0.365,0.273,0.365
	c0.274,0,2.921-0.138,4.473-0.138c2.054,0,4.427,0.138,4.792,0.138c0.228,0,0.273-0.138,0.273-0.32v-1.095
	c0-0.138-0.045-0.229-0.273-0.229h-0.685c-1.323,0-1.871-0.639-1.962-1.688c-0.046-0.685-0.046-5.933-0.046-6.206V99.915z"/>
<path fill="#FFFFFF" d="M76.654,101.193c-0.045,2.784,0,5.476-0.045,7.712c0,1.004-0.548,1.187-1.643,1.187h-0.548
	c-0.183,0-0.274,0.092-0.274,0.229v1.05c0,0.229,0.091,0.365,0.274,0.365c0.319,0,2.647-0.137,3.788-0.137
	c1.506,0,3.97,0.137,4.29,0.137c0.273,0,0.365-0.092,0.365-0.32v-1.095c0-0.137-0.092-0.229-0.274-0.229H81.4
	c-0.912,0-1.186-0.502-1.278-1.141v-4.929v-1.096c0.32-0.091,0.731-0.091,1.187-0.091c1.917,0,2.601,1.004,4.244,3.833
	c0.411,0.686,2.419,4.381,3.286,5.021c0.776-0.046,1.871-0.091,2.921-0.091c0.456,0,1.004,0.045,1.414,0.045
	c0.457,0.046,0.822,0.092,0.913,0.092c0.184,0,0.274-0.137,0.274-0.32v-0.912c0-0.273-0.046-0.411-0.229-0.411
	c-0.821,0-1.415-0.046-2.054-0.502c-0.867-0.639-1.917-2.008-2.555-2.921c-1.871-2.646-2.784-4.061-3.834-4.29v-0.091
	c3.605-1.278,5.385-3.103,5.385-6.252c0-1.05-0.593-2.373-1.597-3.332c-1.141-1.004-3.195-1.779-5.933-1.779
	c-0.593,0-4.563,0.138-5.111,0.138c-0.821,0-3.651-0.138-3.879-0.138c-0.183,0-0.274,0.092-0.274,0.229v1.095
	c0,0.184,0.046,0.319,0.183,0.319h0.456c1.278,0,1.689,0.503,1.734,1.415v4.381V101.193z M80.385,93.39
	c0-0.822,0.684-1.005,1.369-1.005c1.825,0,3.103,0.411,4.335,1.188c0.822,0.547,1.506,1.779,1.506,3.149
	c0,1.186-0.775,4.745-5.841,4.745c-0.593,0-1.05-0.046-1.369-0.092V93.39z"/>
<path fill="#FFFFFF" d="M110.913,105.392c0-0.776,0.867-0.958,1.323-0.958h0.775c0.137,0,0.229-0.137,0.229-0.274v-1.095
	c0-0.137-0.093-0.229-0.274-0.229c-0.183,0-2.237,0.092-3.925,0.092c-2.464,0-4.701-0.092-4.975-0.092
	c-0.183,0-0.229,0.092-0.229,0.229v1.095c0,0.138,0.046,0.229,0.229,0.229h1.096c1.186,0,2.235,0.318,2.235,1.369v1.688
	c0,0.912-0.091,1.506-0.685,1.962c-0.73,0.594-2.19,1.004-3.787,1.004c-1.278,0-3.103-0.685-4.381-2.054
	c-1.78-1.871-2.784-4.472-2.784-7.986c0-2.054,1.004-4.472,2.373-5.978c1.689-1.826,3.468-2.328,4.883-2.328
	c2.1,0,3.377,0.913,4.609,2.191c1.096,1.095,1.871,2.51,2.19,3.239c0.138,0.365,0.229,0.411,0.365,0.365l0.867-0.273
	c0.137-0.045,0.182-0.138,0.182-0.365c-0.091-0.821-0.684-5.065-0.684-5.294c0-0.319-0.091-0.502-0.502-0.502
	c-0.365,0-0.502,0.137-0.593,0.319l-0.229,0.411c-0.092,0.137-0.273,0.137-0.639-0.183c-0.868-0.639-3.012-1.46-5.203-1.46
	c-3.24,0-6.024,0.958-8.169,2.783c-2.19,1.917-3.377,4.7-3.377,7.484c0,3.56,0.913,6.024,2.738,8.032
	c2.145,2.373,5.796,3.331,8.169,3.331c2.921,0,5.385-0.639,7.804-1.825c0.32-0.137,0.502-0.273,0.502-0.502
	s-0.137-0.502-0.137-0.913V105.392z"/>
<path fill="#FFFFFF" d="M119.818,99.915c0-0.319,0.045-5.75,0.045-6.207c0.046-0.958,0.457-1.14,1.688-1.14h0.776
	c0.228,0,0.274-0.138,0.274-0.32v-1.095c0-0.138-0.093-0.229-0.274-0.229c-0.365,0-2.693,0.138-4.016,0.138
	c-2.146,0.045-4.975-0.138-5.248-0.138c-0.184,0-0.274,0.091-0.274,0.273v1.05c0,0.183,0.046,0.32,0.274,0.32h0.82
	c1.917,0,2.328,0.456,2.328,0.958c0,0.639,0.091,5.202,0.091,5.933v2.008c0,1.552-0.046,7.348-0.091,7.758
	c-0.092,0.821-0.822,0.867-1.963,0.867h-1.004c-0.182,0-0.274,0.138-0.274,0.274v1.004c0,0.228,0.093,0.365,0.274,0.365
	c0.274,0,2.921-0.138,4.472-0.138c2.055,0,4.428,0.138,4.792,0.138c0.229,0,0.274-0.138,0.274-0.32v-1.095
	c0-0.138-0.045-0.229-0.274-0.229h-0.684c-1.324,0-1.871-0.639-1.963-1.688c-0.045-0.685-0.045-5.933-0.045-6.206V99.915z"/>
<path fill="#FFFFFF" d="M144.388,100.372c0-1.871-0.091-4.746,0.138-6.846c0.091-0.639,0.318-0.959,1.46-0.959h0.457
	c0.182,0,0.273-0.137,0.273-0.318V91.29c0-0.274-0.092-0.365-0.319-0.365c-0.319,0-1.917,0.137-2.875,0.137
	c-1.46,0-3.424-0.137-3.742-0.137c-0.229,0-0.32,0.091-0.32,0.228v1.097c0,0.228,0.092,0.318,0.32,0.318h0.775
	c0.776,0,1.46,0.274,1.688,0.822c0.228,0.547,0.365,3.194,0.365,4.29c0.092,1.46,0.137,2.874,0.137,5.476v3.013h-0.183
	c-0.548-0.594-4.791-5.934-5.613-6.892c-0.958-1.141-6.206-7.758-6.343-7.94c-0.184-0.274-0.457-0.365-1.096-0.365
	c-0.548,0-1.506,0.091-2.236,0.091c-0.501,0-1.232-0.046-1.825-0.091c-0.593,0-1.095-0.046-1.187-0.046
	c-0.183,0-0.273,0.137-0.273,0.273v1.096c0,0.183,0.091,0.273,0.273,0.273h0.41c1.278,0,2.419,0.776,2.419,2.419v4.792
	c0,5.157-0.091,8.397-0.137,8.944c-0.137,1.05-0.867,1.369-1.324,1.369h-1.049c-0.137,0-0.182,0.046-0.182,0.137v1.188
	c0,0.228,0.045,0.318,0.136,0.318c0.365,0,2.419-0.137,3.058-0.137c1.323,0,3.149,0.137,3.469,0.137
	c0.228,0,0.228-0.091,0.228-0.272v-1.097c0-0.182,0-0.273-0.228-0.273h-0.958c-0.457,0-0.958-0.502-1.096-1.551
	c-0.092-0.411-0.273-4.976-0.273-7.714v-6.252h0.091c0.729,0.822,4.427,5.75,5.521,7.028c0.502,0.593,2.466,2.921,4.564,5.431
	c1.871,2.236,3.422,4.107,3.742,4.428c0.182,0.136,0.639,0.456,1.049,0.456c0.548,0,0.685-0.456,0.685-0.867V100.372z"/>
<path fill="#FFFFFF" d="M32.972,88.438h-2.57c-0.145,0-0.215-0.142-0.158-0.344l0.116-0.491c0.058-0.201,0.257-0.664,0.488-0.664
	h2.513c0.866-2.484,1.706-4.506,3.237-6.209c0.809-0.925,2.397-1.965,4.274-1.965c1.676,0,2.6,1.012,2.6,1.704
	c0,0.896-0.578,1.329-1.156,1.329c-0.924,0-1.184-0.52-1.27-1.155c-0.029-0.288-0.318-0.838-1.184-0.838
	c-2.686,0-3.267,3.815-4.22,7.051c0,0,4.014,0.106,7.29,0.106c3.528,0,5.419-0.126,5.797-0.126s0.42,0.126,0.42,0.294v0.966
	c0,0.21-0.042,0.378-0.336,0.378h-2.016c-1.177,0-1.765,0.378-1.765,1.094c0,0.336,0.042,0.84,0.168,1.428
	c0.252,1.512,1.807,6.51,2.563,8.863c0.504,1.595,2.94,8.819,3.906,11.382c0.966-1.975,4.242-10.627,4.578-11.593
	c0.42-1.135,2.017-5.965,2.647-7.812c0.336-1.05,0.588-1.806,0.588-2.395c0-0.505-0.294-0.967-1.344-0.967h-1.093
	c-0.168,0-0.21-0.126-0.21-0.378v-0.966c0-0.21,0.042-0.294,0.252-0.294c0.378,0,2.311,0.126,4.957,0.126
	c3.066,0,4.116-0.126,4.494-0.126c0.252,0,0.294,0.084,0.294,0.294v1.05c0,0.168-0.042,0.294-0.294,0.294h-1.134
	c-1.386,0-2.184,0.673-2.982,1.639c-1.092,1.345-4.453,9.955-5.167,11.72c-0.504,1.386-5.922,14.743-6.132,15.163
	c-0.168,0.336-0.378,0.546-0.588,0.546c-0.336,0-0.504-0.42-0.714-0.966c-1.344-3.865-4.747-13.441-5.293-14.953l-0.42-1.429
	c-1.008-2.982-2.982-9.072-3.528-10.333c-0.42-0.967-0.84-1.387-1.722-1.387l-3.906-0.036c-0.751,2.34-2.08,7.28-3.524,10.978
	c-1.761,4.505-3.812,7.711-6.902,7.711c-1.155,0-2.08-0.78-2.08-1.704c0-0.664,0.491-1.242,1.242-1.242
	c0.838,0,1.271,0.81,1.358,1.301c0.058,0.288,0.26,0.49,0.491,0.49c1.386,0,2.945-2.426,4.505-7.769L32.972,88.438z"/>
<path fill="#FFFFFF" d="M147.15,63.813c0.058-0.041,0.04-0.041,0.179-0.024c0.71,0.079,3.3,0.32,8.312,0.32h1.825
	c1.492,0,3.098-0.06,4.838-0.132c0.874-0.024,6.235,0.041,7.33,0.041c1.004,0,4.106-0.137,4.426-0.137c0.184,0,0.32,0.092,0.32,0.32
	v1.004c0,0.182-0.046,0.318-0.32,0.318h-0.684c-0.821,0-0.867,0.502-0.686,0.776c0.274,0.411,4.062,6.48,4.792,7.576
	c0.686-1.142,4.474-6.663,4.655-7.028c0.365-0.729,0.411-1.324-0.593-1.324h-0.73c-0.229,0-0.319-0.137-0.319-0.318v-1.004
	c0-0.184,0.091-0.32,0.319-0.32c0.273,0,2.556,0.137,3.924,0.137c0.822,0,2.419-0.137,2.693-0.137c0.229,0,0.319,0.092,0.319,0.366
	v0.958c0,0.228-0.091,0.318-0.274,0.318h-0.456c-0.729,0-1.231,0.138-1.643,0.365c-0.685,0.365-5.979,7.804-7.028,9.401v3.834
	c0.046,1.141,0,2.373,0.091,2.921c0.092,0.958,0.822,1.004,1.645,1.004h0.593c0.228,0,0.319,0.091,0.319,0.228v1.096
	c0,0.182-0.092,0.318-0.365,0.318c-0.274,0-2.83-0.137-4.335-0.137c-1.004,0-3.651,0.137-3.925,0.137
	c-0.229,0-0.319-0.091-0.319-0.364v-1.004c0-0.138,0.091-0.273,0.274-0.273h0.684c1.46,0,1.734-0.274,1.78-0.913
	c0.045-0.411,0.045-2.054,0.045-4.746v-1.643c-0.41-0.822-5.979-8.99-6.708-9.675c-0.386-0.387-1.034-0.512-1.445-0.54
	c0.271,1.236,0.639,2.856,0.785,3.643c0.045,0.183-0.046,0.274-0.229,0.365l-0.774,0.228c-0.274,0.092-0.411,0.046-0.502-0.182
	c-0.548-1.142-1.323-2.647-2.282-3.514c-1.141-0.411-4.479-0.456-5.301-0.456v7.666c0,4.792,0,8.215,0.046,8.579
	c0.091,0.73,0.319,1.188,1.049,1.188h1.735c0.228,0,0.318,0.136,0.318,0.41v0.958c0,0.137-0.091,0.273-0.318,0.273
	c-0.32,0-3.149-0.137-4.655-0.137c-1.278,0-4.244,0.137-4.609,0.137c-0.273,0-0.365-0.137-0.365-0.409v-0.913
	c0-0.229,0.092-0.319,0.273-0.319h1.826c0.684,0,1.004-0.366,1.049-0.731c0.137-1.733,0.137-4.152,0.137-6.891v-9.811
	c-0.866,0-3.429-0.047-5.117,0.409c-1.142,0.867-2.1,2.328-2.692,3.515c-0.092,0.183-0.229,0.319-0.411,0.228l-0.822-0.318
	c-0.228-0.092-0.228-0.274-0.182-0.456c0.264-0.83,1.056-3.645,1.427-5.025C147.088,63.896,147.095,63.854,147.15,63.813"/>
<path fill="#FFFFFF" d="M163.994,102.242h6.207c-0.184-0.638-2.328-7.484-2.42-7.849c-0.091-0.274-0.137-0.456-0.273-0.456
	s-0.229,0.137-0.365,0.502C167.006,94.804,164.222,101.786,163.994,102.242 M154.522,99.915v2.282c0,0.273,0,5.521,0.046,6.206
	c0.092,1.05,0.639,1.688,1.962,1.688h0.527c0.775,0,1.506-0.457,1.871-0.958c0.319-0.365,2.647-5.842,3.742-8.124
	c0.318-0.639,3.012-6.845,3.286-7.621c0.091-0.273,0.364-0.775,0.045-0.912c-0.091-0.092-0.229-0.319-0.183-0.456
	c-0.046-0.092,0.045-0.229,0.456-0.32c0.867-0.137,2.146-0.958,2.557-1.323c0.091-0.182,0.273-0.319,0.547-0.319
	s0.365,0.183,0.457,0.503c0.638,1.824,2.966,8.351,3.559,10.176c0.686,2.282,2.647,7.667,2.967,8.124
	c0.594,0.82,1.369,1.231,2.145,1.231h0.868c0.182,0,0.228,0.138,0.228,0.274v0.958c0,0.137-0.046,0.411-0.32,0.411
	c-0.547,0-2.966-0.138-4.016-0.138c-0.867,0-3.559,0.138-4.153,0.138c-0.318,0-0.364-0.229-0.364-0.411v-0.958
	c0-0.137,0.046-0.274,0.229-0.274h0.73c0.547,0,0.729-0.411,0.729-0.775c-0.183-0.913-1.415-4.564-1.78-5.613h-7.347
	c-0.183,0.547-1.643,4.335-1.826,4.883c-0.273,0.913-0.137,1.506,0.822,1.506h1.141c0.274,0,0.319,0.138,0.319,0.319v1.004
	c0,0.183-0.045,0.32-0.273,0.32c-0.365,0-2.783-0.138-3.515-0.138h-7.554c-1.552,0-4.199,0.138-4.473,0.138
	c-0.183,0-0.273-0.138-0.273-0.365v-1.004c0-0.137,0.091-0.274,0.273-0.274h1.004c1.141,0,1.871-0.046,1.963-0.867
	c0.046-0.41,0.091-6.206,0.091-7.758v-2.008c0-0.73-0.091-5.294-0.091-5.933c0-0.502-0.411-0.958-2.328-0.958h-0.821
	c-0.228,0-0.273-0.138-0.273-0.32v-1.05c0-0.183,0.091-0.273,0.273-0.273c0.274,0,3.104,0.183,5.248,0.138
	c1.323,0,3.651-0.138,4.016-0.138c0.184,0,0.274,0.091,0.274,0.229v1.095c0,0.183-0.046,0.32-0.274,0.32h-0.775
	c-1.232,0-1.644,0.182-1.688,1.14C154.568,94.165,154.522,99.596,154.522,99.915"/>
<path fill="#FFFFFF" d="M71.048,64.201v1.05c0,0.183-0.137,0.274-0.319,0.274h-1.05c-0.593,0-1.278,0.091-1.278,0.684
	c0,1.051,0.776,2.829,2.008,6.663c0.365,1.142,2.054,6.436,2.327,7.165h0.137c0.274-0.958,2.51-6.617,2.739-7.302
	c1.734-5.065,2.327-6.298,2.327-6.754c0-0.229-0.182-0.456-0.958-0.456h-0.502c-0.183,0-0.274-0.092-0.274-0.32v-1.049
	c0-0.137,0.091-0.273,0.274-0.273c0.273,0,2.646,0.137,3.696,0.137h6.976l10.222-0.046c0.457,0,1.05-0.091,1.233-0.091
	c0.091,0,0.182,0.091,0.273,0.639c0.092,0.41,1.369,4.335,1.46,4.655c0.045,0.182,0.045,0.272-0.046,0.318l-0.729,0.319
	c-0.091,0.046-0.274,0.046-0.411-0.182c-0.091-0.138-2.282-2.693-3.057-3.424c-0.549-0.502-1.278-0.684-1.734-0.684l-4.838-0.092
	v7.759c0.274,0,2.967-0.137,3.332-0.229c1.186-0.319,1.642-0.958,1.642-2.373c0-0.183,0.046-0.229,0.229-0.229l1.004,0.046
	c0.182,0,0.318,0.091,0.272,0.273c-0.091,0.411-0.091,2.83-0.091,3.241c0,1.004,0.137,2.418,0.184,3.012
	c0,0.182-0.093,0.228-0.229,0.228l-0.959,0.091c-0.137,0-0.228,0-0.274-0.183c-0.228-1.14-0.502-1.87-1.688-2.144
	c-1.369-0.32-2.967-0.32-3.423-0.32v1.552c0,1.598,0.091,4.244,0.091,4.837c0,2.146,1.324,2.282,3.286,2.282
	c2.008,0,3.286-0.046,4.838-1.278c0.365-0.273,1.962-2.326,2.418-3.057c0.228-0.32,0.457-0.365,0.594-0.274l0.73,0.411
	c0.091,0.045,0.182,0.183,0.137,0.319l-1.643,4.837c-0.093,0.229-0.32,0.457-0.502,0.457c-0.32,0-2.738-0.137-12.322-0.137
	c-0.822,0-3.331,0.137-3.879,0.137c-0.228,0-0.274-0.137-0.274-0.32v-1.049c0-0.183,0.091-0.273,0.32-0.273h0.41
	c2.145,0,2.282-0.184,2.282-0.822v-6.892v-2.828c0-2.419-0.046-5.386-0.091-5.843c-0.137-0.958-0.411-1.14-2.236-1.14h-0.359h-0.098
	h-0.632c-0.867,0-1.506,0.273-1.917,0.684c-0.867,0.867-3.331,6.847-3.788,8.032c-0.41,0.959-4.153,9.903-4.517,10.496
	c-0.138,0.229-0.366,0.366-0.731,0.366c-0.365,0-0.593-0.32-0.73-0.686c-1.004-2.692-3.423-9.31-3.788-10.313l-0.319-1.004
	c-0.776-2.1-2.145-6.252-2.465-6.708c-0.365-0.502-0.73-0.867-1.323-0.867H62.56c-0.183,0-0.229-0.137-0.229-0.274V64.11
	c0-0.137,0.092-0.228,0.274-0.228c0.228,0,2.739,0.137,3.925,0.137c1.095,0,3.879-0.137,4.153-0.137S71.048,63.974,71.048,64.201"/>
</svg>
